# xmcd CD database file
#
# Track frame offsets:
#	150
#	13084
#	31126
#	45166
#	62181
#	91205
#	94282
#	109884
#	130080
#	149439
#	158601
#
# Disc length: 2312 seconds
#
# Revision: 1
# Processed by: cddbd v1.5.2PL0 Copyright (c) Steve Scherf et al.
# Submitted via: CDex 1.51
#
DISCID=8809060b
DTITLE=Granfaloon Bus - Necks and Backs
DYEAR=2000
DGENRE=Alt. Country, Alt. Pop/Rock
TTITLE0=1/2 a Beer, 1/2 a Song
TTITLE1=Matthew
TTITLE2=Corn Circle Experts
TTITLE3=Miss Essmaker
TTITLE4=3rd Rail Waltz
TTITLE5=Black Hound's Bay
TTITLE6=Vannderpüdelwiederhoilt
TTITLE7=Marsscapes
TTITLE8=At My Window
TTITLE9=Worldwar Lovesong
TTITLE10=Pudendub
EXTD=YEAR: 2000
EXTT0=
EXTT1=
EXTT2=
EXTT3=
EXTT4=
EXTT5=
EXTT6=
EXTT7=
EXTT8=
EXTT9=
EXTT10=
PLAYORDER=
